<?xml version="1.0" encoding="utf-8"?>
<!-- Generator: Adobe Illustrator 23.0.6, SVG Export Plug-In . SVG Version: 6.00 Build 0)  -->
<svg version="1.1" id="Ebene_1" xmlns="http://www.w3.org/2000/svg" xmlns:xlink="http://www.w3.org/1999/xlink" x="0px" y="0px"
	 viewBox="0 0 430 107.7" style="enable-background:new 0 0 430 107.7;" xml:space="preserve">
<style type="text/css">
	.st0{fill:#2D2D2B;}
	.st1{enable-background:new    ;}
	.st2{fill:#C1002A;}
	.st3{fill:#FFFFFF;}
</style>
<g>
	<g>
		<path class="st0" d="M40.4,31.7c-1.3-0.7-2.3-1.6-3-2.8c-0.7-1.2-1.1-2.6-1.1-4.2V7.2c0-0.1,0-0.2,0.1-0.3
			c0.1-0.1,0.2-0.1,0.3-0.1h1.1c0.1,0,0.2,0,0.3,0.1c0.1,0.1,0.1,0.2,0.1,0.3v17.5c0,1.9,0.6,3.4,1.8,4.6c1.2,1.2,2.8,1.7,4.8,1.7
			c2,0,3.6-0.6,4.8-1.7s1.8-2.7,1.8-4.6V7.2c0-0.1,0-0.2,0.1-0.3c0.1-0.1,0.2-0.1,0.3-0.1h1.1c0.1,0,0.2,0,0.3,0.1
			c0.1,0.1,0.1,0.2,0.1,0.3v17.5c0,1.6-0.3,3-1.1,4.2s-1.7,2.2-3,2.8s-2.8,1-4.5,1S41.6,32.4,40.4,31.7z"/>
		<path class="st0" d="M62.4,32.3c-0.1-0.1-0.1-0.2-0.1-0.3V7.2c0-0.1,0-0.2,0.1-0.3c0.1-0.1,0.2-0.1,0.3-0.1h1.1
			c0.2,0,0.4,0.1,0.5,0.3l13.2,21.3c0,0.1,0.1,0.1,0.1,0.1s0.1-0.1,0.1-0.1V7.2c0-0.1,0-0.2,0.1-0.3c0.1-0.1,0.2-0.1,0.3-0.1h1.1
			c0.1,0,0.2,0,0.3,0.1c0.1,0.1,0.1,0.2,0.1,0.3V32c0,0.1,0,0.2-0.1,0.3c-0.1,0.1-0.2,0.1-0.3,0.1h-1.1c-0.2,0-0.4-0.1-0.5-0.3
			L64.4,10.7c0-0.1-0.1-0.1-0.1-0.1s-0.1,0.1-0.1,0.1V32c0,0.1,0,0.2-0.1,0.3c-0.1,0.1-0.2,0.1-0.3,0.1h-1.1
			C62.6,32.4,62.5,32.4,62.4,32.3z"/>
		<path class="st0" d="M88.9,32.3c-0.1-0.1-0.1-0.2-0.1-0.3V7.2c0-0.1,0-0.2,0.1-0.3c0.1-0.1,0.2-0.1,0.3-0.1h1.1
			c0.1,0,0.2,0,0.3,0.1c0.1,0.1,0.1,0.2,0.1,0.3V32c0,0.1,0,0.2-0.1,0.3c-0.1,0.1-0.2,0.1-0.3,0.1h-1.1C89.1,32.4,89,32.4,88.9,32.3
			z"/>
		<path class="st0" d="M106.5,32L98.4,7.2c0,0,0-0.1,0-0.2c0-0.2,0.1-0.3,0.4-0.3h1.2c0.2,0,0.4,0.1,0.5,0.4l7.1,22.3
			c0,0.1,0.1,0.1,0.1,0.1s0.1,0,0.1-0.1l7.2-22.3c0.1-0.2,0.2-0.4,0.5-0.4h1.1c0.1,0,0.3,0,0.3,0.1s0.1,0.2,0,0.4l-8.1,24.8
			c-0.1,0.2-0.2,0.4-0.5,0.4H107C106.7,32.4,106.6,32.3,106.5,32z"/>
		<path class="st0" d="M140.7,8.3c-0.1,0.1-0.2,0.1-0.3,0.1h-13.8c-0.1,0-0.1,0-0.1,0.2v9.9c0,0.1,0.1,0.2,0.1,0.2h9.8
			c0.1,0,0.2,0,0.3,0.1c0.1,0.1,0.1,0.2,0.1,0.3v0.8c0,0.1,0,0.2-0.1,0.3c-0.1,0.1-0.2,0.1-0.3,0.1h-9.8c-0.1,0-0.1,0.1-0.1,0.2v10
			c0,0.1,0.1,0.2,0.1,0.2h13.8c0.1,0,0.2,0,0.3,0.1c0.1,0.1,0.1,0.2,0.1,0.3V32c0,0.1,0,0.2-0.1,0.3c-0.1,0.1-0.2,0.1-0.3,0.1h-15.5
			c-0.1,0-0.2,0-0.3-0.1c-0.1-0.1-0.1-0.2-0.1-0.3V7.2c0-0.1,0-0.2,0.1-0.3c0.1-0.1,0.2-0.1,0.3-0.1h15.5c0.1,0,0.2,0,0.3,0.1
			c0.1,0.1,0.1,0.2,0.1,0.3V8C140.8,8.1,140.8,8.3,140.7,8.3z"/>
		<path class="st0" d="M164,32.1l-5.6-11.7c0-0.1-0.1-0.1-0.1-0.1h-6.9c-0.1,0-0.1,0.1-0.1,0.2V32c0,0.1,0,0.2-0.1,0.3
			c-0.1,0.1-0.2,0.1-0.3,0.1h-1.1c-0.1,0-0.2,0-0.3-0.1c-0.1-0.1-0.1-0.2-0.1-0.3V7.1c0-0.1,0-0.2,0.1-0.3c0.1-0.1,0.2-0.1,0.3-0.1
			h9.2c2.1,0,3.7,0.6,5,1.9s1.9,2.9,1.9,5c0,1.8-0.5,3.2-1.4,4.4c-1,1.2-2.3,1.9-3.9,2.2c-0.1,0.1-0.2,0.1-0.1,0.2l5.6,11.6
			c0.1,0.1,0.1,0.2,0.1,0.2c0,0.2-0.1,0.3-0.4,0.3h-1C164.3,32.4,164.1,32.3,164,32.1z M151.1,8.6v10c0,0.1,0.1,0.2,0.1,0.2h7.3
			c1.5,0,2.7-0.5,3.7-1.4c0.9-0.9,1.4-2.2,1.4-3.7c0-1.6-0.5-2.8-1.4-3.8s-2.2-1.4-3.7-1.4h-7.3C151.2,8.4,151.1,8.5,151.1,8.6z"/>
		<path class="st0" d="M174.7,30.9c-1.6-1.2-2.3-2.8-2.3-4.9v-1.1c0-0.1,0-0.2,0.1-0.3c0.1-0.1,0.2-0.1,0.3-0.1h1
			c0.1,0,0.2,0,0.3,0.1s0.1,0.2,0.1,0.3v1c0,1.5,0.6,2.7,1.9,3.7s2.9,1.4,5.1,1.4c2,0,3.6-0.4,4.6-1.3c1.1-0.8,1.6-2,1.6-3.5
			c0-0.9-0.2-1.7-0.7-2.4c-0.5-0.7-1.2-1.3-2.2-1.9s-2.4-1.3-4.2-2c-1.9-0.8-3.4-1.5-4.3-2s-1.8-1.2-2.4-2c-0.6-0.8-0.9-1.9-0.9-3.2
			c0-2,0.7-3.5,2.1-4.6s3.3-1.6,5.7-1.6c2.7,0,4.8,0.6,6.3,1.8s2.3,2.9,2.3,4.9v0.8c0,0.1,0,0.2-0.1,0.3c-0.1,0.1-0.2,0.1-0.3,0.1
			h-1.1c-0.1,0-0.2,0-0.3-0.1c-0.1-0.1-0.1-0.2-0.1-0.3v-0.7c0-1.5-0.6-2.8-1.8-3.7c-1.2-0.9-2.8-1.4-4.9-1.4
			c-1.9,0-3.3,0.4-4.3,1.2s-1.5,1.9-1.5,3.3c0,1,0.2,1.8,0.7,2.4c0.5,0.6,1.1,1.1,2,1.6c0.9,0.5,2.2,1,4,1.8s3.3,1.4,4.4,2.1
			s2,1.5,2.6,2.4c0.6,0.9,0.9,2,0.9,3.3c0,2-0.7,3.6-2.2,4.8s-3.5,1.8-6.2,1.8C178.4,32.7,176.3,32.1,174.7,30.9z"/>
		<path class="st0" d="M197.6,32.3c-0.1-0.1-0.1-0.2-0.1-0.3V7.2c0-0.1,0-0.2,0.1-0.3c0.1-0.1,0.2-0.1,0.3-0.1h1.1
			c0.1,0,0.2,0,0.3,0.1c0.1,0.1,0.1,0.2,0.1,0.3V32c0,0.1,0,0.2-0.1,0.3c-0.1,0.1-0.2,0.1-0.3,0.1h-1.1
			C197.7,32.4,197.6,32.4,197.6,32.3z"/>
		<path class="st0" d="M224.3,6.9c0.1,0.1,0.1,0.2,0.1,0.3V8c0,0.1,0,0.2-0.1,0.3c-0.1,0.1-0.2,0.1-0.3,0.1h-7.3
			c-0.1,0-0.1,0-0.1,0.2V32c0,0.1,0,0.2-0.1,0.3c-0.1,0.1-0.2,0.1-0.3,0.1h-1.1c-0.1,0-0.2,0-0.3-0.1c-0.1-0.1-0.1-0.2-0.1-0.3V8.6
			c0-0.1,0-0.2-0.1-0.2h-6.9c-0.1,0-0.2,0-0.3-0.1c-0.1-0.1-0.1-0.2-0.1-0.3V7.2c0-0.1,0-0.2,0.1-0.3c0.1-0.1,0.2-0.1,0.3-0.1H224
			C224.1,6.7,224.2,6.8,224.3,6.9z"/>
		<path class="st0" d="M244.2,32l-1.6-4.8c0-0.1-0.1-0.1-0.1-0.1H231c-0.1,0-0.1,0-0.1,0.1l-1.5,4.8c-0.1,0.2-0.2,0.4-0.5,0.4h-1.2
			c-0.1,0-0.3,0-0.3-0.1c-0.1-0.1-0.1-0.2,0-0.4l8.1-24.8c0.1-0.2,0.2-0.4,0.5-0.4h1.6c0.2,0,0.4,0.1,0.5,0.4l8.2,24.8
			c0,0.1,0,0.1,0,0.2c0,0.2-0.1,0.3-0.4,0.3h-1.1C244.4,32.4,244.3,32.3,244.2,32z M231.5,25.5c0,0,0.1,0.1,0.1,0.1h10.3
			c0,0,0.1,0,0.1-0.1s0-0.1,0-0.1l-5.2-16.1c0,0-0.1-0.1-0.1-0.1s-0.1,0-0.1,0.1l-5.1,16.1C231.4,25.4,231.4,25.4,231.5,25.5z
			 M232.7,2.5c-0.3-0.3-0.4-0.6-0.4-1.1c0-0.4,0.1-0.8,0.4-1c0.3-0.3,0.7-0.4,1.1-0.4s0.8,0.1,1.1,0.4s0.4,0.6,0.4,1
			c0,0.4-0.1,0.8-0.4,1.1c-0.3,0.3-0.6,0.4-1.1,0.4C233.3,3,233,2.8,232.7,2.5z M238.6,2.5c-0.3-0.3-0.4-0.6-0.4-1.1
			c0-0.4,0.1-0.8,0.4-1c0.3-0.3,0.7-0.4,1.1-0.4c0.4,0,0.8,0.1,1,0.4s0.4,0.6,0.4,1c0,0.4-0.1,0.8-0.4,1.1c-0.3,0.3-0.6,0.4-1,0.4
			C239.3,3,238.9,2.8,238.6,2.5z"/>
		<path class="st0" d="M266.2,6.9c0.1,0.1,0.1,0.2,0.1,0.3V8c0,0.1,0,0.2-0.1,0.3c-0.1,0.1-0.2,0.1-0.3,0.1h-7.3
			c-0.1,0-0.1,0-0.1,0.2V32c0,0.1,0,0.2-0.1,0.3c-0.1,0.1-0.2,0.1-0.3,0.1H257c-0.1,0-0.2,0-0.3-0.1c-0.1-0.1-0.1-0.2-0.1-0.3V8.6
			c0-0.1,0-0.2-0.1-0.2h-6.9c-0.1,0-0.2,0-0.3-0.1c-0.1-0.1-0.1-0.2-0.1-0.3V7.2c0-0.1,0-0.2,0.1-0.3c0.1-0.1,0.2-0.1,0.3-0.1h16.4
			C266,6.7,266.2,6.8,266.2,6.9z"/>
		<path class="st0" d="M272.8,30.9c-1.5-1.2-2.3-2.8-2.3-4.9v-1.1c0-0.1,0-0.2,0.1-0.3c0.1-0.1,0.2-0.1,0.3-0.1h1
			c0.1,0,0.2,0,0.3,0.1c0.1,0.1,0.1,0.2,0.1,0.3v1c0,1.5,0.6,2.7,1.9,3.7s2.9,1.4,5.1,1.4c2,0,3.6-0.4,4.6-1.3
			c1.1-0.8,1.6-2,1.6-3.5c0-0.9-0.2-1.7-0.7-2.4c-0.5-0.7-1.2-1.3-2.2-1.9s-2.4-1.3-4.2-2c-1.9-0.8-3.4-1.5-4.3-2
			c-1-0.5-1.8-1.2-2.4-2s-0.9-1.9-0.9-3.2c0-2,0.7-3.5,2.1-4.6s3.3-1.6,5.7-1.6c2.7,0,4.8,0.6,6.3,1.8s2.3,2.9,2.3,4.9v0.8
			c0,0.1,0,0.2-0.1,0.3c-0.1,0.1-0.2,0.1-0.3,0.1h-1.1c-0.1,0-0.2,0-0.3-0.1c-0.1-0.1-0.1-0.2-0.1-0.3v-0.7c0-1.5-0.6-2.8-1.8-3.7
			c-1.2-0.9-2.8-1.4-5-1.4c-1.9,0-3.3,0.4-4.3,1.2s-1.5,1.9-1.5,3.3c0,1,0.2,1.8,0.7,2.4c0.5,0.6,1.1,1.1,2,1.6c0.9,0.5,2.2,1,4,1.8
			s3.3,1.4,4.4,2.1c1.1,0.7,2,1.5,2.6,2.4c0.6,0.9,1,2,1,3.3c0,2-0.7,3.6-2.2,4.8s-3.5,1.8-6.2,1.8S274.3,32.1,272.8,30.9z"/>
		<path class="st0" d="M14.3,55.9c0,0.1,0.1,0.1,0.2,0.2c2.4,1.2,3.7,3.2,3.7,6c0,2.3-0.8,4.1-2.3,5.3c-1.6,1.2-3.6,1.8-6.1,1.8H0.6
			C0.2,69.2,0,69,0,68.6V44.1c0-0.4,0.2-0.6,0.6-0.6h8.8c2.7,0,4.7,0.6,6.2,1.7s2.2,2.9,2.2,5.2c0,2.5-1.1,4.3-3.3,5.3
			C14.3,55.8,14.3,55.9,14.3,55.9z M4.3,47.4v6.7c0,0.2,0.1,0.2,0.2,0.2h4.9c1.3,0,2.3-0.3,3.1-0.9c0.8-0.6,1.1-1.5,1.1-2.6
			c0-1.1-0.4-2-1.1-2.7c-0.8-0.7-1.8-1-3.1-1H4.5C4.3,47.2,4.3,47.3,4.3,47.4z M12.7,64.5c0.8-0.7,1.1-1.6,1.1-2.8
			c0-1.2-0.4-2.1-1.1-2.8c-0.8-0.7-1.8-1-3.1-1H4.5c-0.2,0-0.2,0.1-0.2,0.2v7.2c0,0.2,0.1,0.2,0.2,0.2h5.2
			C11,65.5,12,65.2,12.7,64.5z"/>
		<path class="st0" d="M24.4,68.6V44.1c0-0.4,0.2-0.6,0.6-0.6H28c0.4,0,0.6,0.2,0.6,0.6v24.5c0,0.4-0.2,0.6-0.6,0.6H25
			C24.6,69.2,24.4,69,24.4,68.6z"/>
		<path class="st0" d="M49.9,55.9c0,0.1,0.1,0.1,0.2,0.2c2.4,1.2,3.7,3.2,3.7,6c0,2.3-0.8,4.1-2.3,5.3c-1.6,1.2-3.6,1.8-6.1,1.8
			h-9.1c-0.4,0-0.6-0.2-0.6-0.6V44.1c0-0.4,0.2-0.6,0.6-0.6H45c2.7,0,4.7,0.6,6.2,1.7c1.4,1.2,2.2,2.9,2.2,5.2
			c0,2.5-1.1,4.3-3.3,5.3C50,55.8,49.9,55.9,49.9,55.9z M39.9,47.4v6.7c0,0.2,0.1,0.2,0.2,0.2h4.9c1.3,0,2.3-0.3,3.1-0.9
			c0.8-0.6,1.1-1.5,1.1-2.6c0-1.1-0.4-2-1.1-2.7s-1.8-1-3.1-1h-4.9C40,47.2,39.9,47.3,39.9,47.4z M48.4,64.5
			c0.8-0.7,1.1-1.6,1.1-2.8c0-1.2-0.4-2.1-1.1-2.8c-0.8-0.7-1.8-1-3.1-1h-5.1c-0.2,0-0.2,0.1-0.2,0.2v7.2c0,0.2,0.1,0.2,0.2,0.2h5.2
			C46.6,65.5,47.6,65.2,48.4,64.5z"/>
		<path class="st0" d="M60,68.6V44.1c0-0.4,0.2-0.6,0.6-0.6h3.1c0.4,0,0.6,0.2,0.6,0.6v21.2c0,0.2,0.1,0.2,0.2,0.2h12.1
			c0.4,0,0.6,0.2,0.6,0.6v2.5c0,0.4-0.2,0.6-0.6,0.6h-16C60.2,69.2,60,69,60,68.6z"/>
		<path class="st0" d="M82.6,68.6V44.1c0-0.4,0.2-0.6,0.6-0.6h3.1c0.4,0,0.6,0.2,0.6,0.6v24.5c0,0.4-0.2,0.6-0.6,0.6h-3.1
			C82.8,69.2,82.6,69,82.6,68.6z"/>
		<path class="st0" d="M98.1,68.5c-1.4-0.8-2.5-1.8-3.3-3.2s-1.2-2.9-1.2-4.7v-8.4c0-1.8,0.4-3.3,1.2-4.7s1.9-2.4,3.3-3.2
			c1.4-0.8,3-1.1,4.9-1.1c1.9,0,3.5,0.4,4.9,1.1c1.4,0.8,2.5,1.8,3.3,3.2c0.8,1.4,1.2,2.9,1.2,4.7v8.4c0,1.8-0.4,3.4-1.2,4.7
			s-1.9,2.4-3.3,3.2c-1.4,0.8-3,1.1-4.9,1.1C101.2,69.6,99.6,69.2,98.1,68.5z M106.7,64.5c0.9-0.9,1.4-2.2,1.4-3.8v-8.5
			c0-1.6-0.5-2.9-1.4-3.8s-2.2-1.4-3.7-1.4c-1.5,0-2.7,0.5-3.7,1.4s-1.4,2.2-1.4,3.8v8.5c0,1.6,0.5,2.8,1.4,3.8
			c0.9,0.9,2.1,1.4,3.7,1.4C104.6,65.9,105.8,65.4,106.7,64.5z"/>
		<path class="st0" d="M135.8,44.1v2.5c0,0.4-0.2,0.6-0.6,0.6h-6.6c-0.1,0-0.2,0.1-0.2,0.2v21.2c0,0.4-0.2,0.6-0.6,0.6h-3.1
			c-0.4,0-0.6-0.2-0.6-0.6V47.5c0-0.2-0.1-0.2-0.2-0.2h-6.3c-0.4,0-0.6-0.2-0.6-0.6v-2.5c0-0.4,0.2-0.6,0.6-0.6h17.6
			C135.6,43.5,135.8,43.7,135.8,44.1z"/>
		<path class="st0" d="M156.2,43.5h3.1c0.4,0,0.6,0.2,0.6,0.6v24.5c0,0.4-0.2,0.6-0.6,0.6h-3.1c-0.4,0-0.6-0.2-0.6-0.6V58.3
			c0-0.2-0.1-0.2-0.2-0.2h-9.3c-0.1,0-0.2,0.1-0.2,0.2v10.3c0,0.4-0.2,0.6-0.6,0.6h-3.1c-0.4,0-0.6-0.2-0.6-0.6V44.1
			c0-0.4,0.2-0.6,0.6-0.6h3.1c0.4,0,0.6,0.2,0.6,0.6v10.1c0,0.2,0.1,0.2,0.2,0.2h9.3c0.1,0,0.2-0.1,0.2-0.2V44.1
			C155.6,43.7,155.8,43.5,156.2,43.5z"/>
		<path class="st0" d="M183.6,47.2h-12.3c-0.1,0-0.2,0.1-0.2,0.2v6.8c0,0.2,0.1,0.2,0.2,0.2h8.2c0.4,0,0.6,0.2,0.6,0.6v2.5
			c0,0.4-0.2,0.6-0.6,0.6h-8.2c-0.1,0-0.2,0.1-0.2,0.2v7c0,0.2,0.1,0.2,0.2,0.2h12.3c0.4,0,0.6,0.2,0.6,0.6v2.5
			c0,0.4-0.2,0.6-0.6,0.6h-16.2c-0.4,0-0.6-0.2-0.6-0.6V44.1c0-0.4,0.2-0.6,0.6-0.6h16.2c0.4,0,0.6,0.2,0.6,0.6v2.5
			C184.2,47,184,47.2,183.6,47.2z"/>
		<path class="st0" d="M190.3,68.6V44.1c0-0.4,0.2-0.6,0.6-0.6h3.1c0.4,0,0.6,0.2,0.6,0.6v10.8c0,0.1,0,0.2,0.1,0.2
			c0.1,0,0.1,0,0.2-0.1l9.4-11.1c0.2-0.2,0.4-0.3,0.7-0.3h3.5c0.3,0,0.5,0.1,0.5,0.4c0,0.2,0,0.3-0.1,0.4l-8.2,10.1
			c-0.1,0.1-0.1,0.2,0,0.3l8.9,13.9c0.1,0.1,0.1,0.2,0.1,0.3c0,0.2-0.2,0.4-0.5,0.4h-3.5c-0.3,0-0.5-0.1-0.7-0.4l-7.1-11.2
			c-0.1-0.1-0.1-0.1-0.2-0.1c-0.1,0-0.1,0-0.2,0.1l-2.6,3.1c-0.1,0.1-0.1,0.2-0.1,0.3v7.6c0,0.4-0.2,0.6-0.6,0.6h-3.1
			C190.5,69.2,190.3,69,190.3,68.6z"/>
		<path class="st0" d="M149.5,105.9c-0.1-0.1-0.1-0.2-0.1-0.3V80.8c0-0.1,0-0.2,0.1-0.3c0.1-0.1,0.2-0.1,0.3-0.1h1.1
			c0.2,0,0.4,0.1,0.5,0.3l7.1,11.2c0,0,0.1,0,0.1,0s0.1,0,0.1,0l7.1-11.2c0.1-0.2,0.3-0.3,0.5-0.3h1.1c0.1,0,0.2,0,0.3,0.1
			c0.1,0.1,0.1,0.2,0.1,0.3v24.8c0,0.1,0,0.2-0.1,0.3c-0.1,0.1-0.2,0.1-0.3,0.1h-1.1c-0.1,0-0.2,0-0.3-0.1c-0.1-0.1-0.1-0.2-0.1-0.3
			V84.1c0-0.1,0-0.1-0.1-0.1c-0.1,0-0.1,0-0.1,0.1l-6.3,10.1c-0.1,0.2-0.3,0.3-0.5,0.3h-0.6c-0.2,0-0.4-0.1-0.5-0.3l-6.4-10.1
			c0-0.1-0.1-0.1-0.1-0.1c-0.1,0-0.1,0.1-0.1,0.1v21.4c0,0.1,0,0.2-0.1,0.3c-0.1,0.1-0.2,0.1-0.3,0.1h-1.1
			C149.7,106,149.6,106,149.5,105.9z"/>
		<path class="st0" d="M192.1,105.7l-1.6-4.8c0-0.1-0.1-0.1-0.1-0.1h-11.4c-0.1,0-0.1,0-0.1,0.1l-1.5,4.8c-0.1,0.2-0.2,0.4-0.5,0.4
			h-1.2c-0.1,0-0.3,0-0.3-0.1s-0.1-0.2,0-0.4l8.1-24.8c0.1-0.2,0.2-0.4,0.5-0.4h1.6c0.2,0,0.4,0.1,0.5,0.4l8.2,24.8
			c0,0.1,0,0.1,0,0.2c0,0.2-0.1,0.3-0.4,0.3h-1.1C192.3,106,192.2,105.9,192.1,105.7z M179.4,99.1c0,0,0.1,0.1,0.1,0.1h10.3
			c0.1,0,0.1,0,0.1-0.1c0,0,0-0.1,0-0.1l-5.2-16.1c0-0.1-0.1-0.1-0.1-0.1s-0.1,0-0.1,0.1l-5.1,16.1C179.3,99,179.4,99,179.4,99.1z"
			/>
		<path class="st0" d="M201.5,105.9c-0.1-0.1-0.1-0.2-0.1-0.3V80.8c0-0.1,0-0.2,0.1-0.3c0.1-0.1,0.2-0.1,0.3-0.1h1.1
			c0.1,0,0.2,0,0.3,0.1c0.1,0.1,0.1,0.2,0.1,0.3v24.8c0,0.1,0,0.2-0.1,0.3c-0.1,0.1-0.2,0.1-0.3,0.1h-1.1
			C201.7,106,201.6,106,201.5,105.9z"/>
		<path class="st0" d="M212.2,105.9c-0.1-0.1-0.1-0.2-0.1-0.3V80.8c0-0.1,0-0.2,0.1-0.3c0.1-0.1,0.2-0.1,0.3-0.1h1.1
			c0.2,0,0.4,0.1,0.5,0.3l13.2,21.3c0,0.1,0.1,0.1,0.1,0.1c0,0,0.1-0.1,0.1-0.1V80.8c0-0.1,0-0.2,0.1-0.3c0.1-0.1,0.2-0.1,0.3-0.1
			h1.1c0.1,0,0.2,0,0.3,0.1s0.1,0.2,0.1,0.3v24.8c0,0.1,0,0.2-0.1,0.3s-0.2,0.1-0.3,0.1h-1.1c-0.2,0-0.4-0.1-0.5-0.3l-13.2-21.4
			c0-0.1-0.1-0.1-0.1-0.1c0,0-0.1,0.1-0.1,0.1v21.2c0,0.1,0,0.2-0.1,0.3c-0.1,0.1-0.2,0.1-0.3,0.1h-1.1
			C212.4,106,212.3,106,212.2,105.9z"/>
		<path class="st0" d="M237,105.9c-0.1-0.1-0.1-0.2-0.1-0.3v-1.1c0-0.2,0-0.4,0.1-0.6l13.8-21.7c0,0,0-0.1,0-0.1s-0.1-0.1-0.1-0.1
			h-13.4c-0.1,0-0.2,0-0.3-0.1c-0.1-0.1-0.1-0.2-0.1-0.3v-0.8c0-0.1,0-0.2,0.1-0.3c0.1-0.1,0.2-0.1,0.3-0.1h15.3
			c0.1,0,0.2,0,0.3,0.1c0.1,0.1,0.1,0.2,0.1,0.3v1.1c0,0.2,0,0.4-0.1,0.6l-13.8,21.7c0,0,0,0.1,0,0.1s0.1,0.1,0.1,0.1h13.4
			c0.1,0,0.2,0,0.3,0.1c0.1,0.1,0.1,0.2,0.1,0.3v0.8c0,0.1,0,0.2-0.1,0.3s-0.2,0.1-0.3,0.1h-15.3C237.2,106,237.1,106,237,105.9z"/>
	</g>
	<g>
		<g class="st1">
			<g class="st1">
				<g>
					<path class="st2" d="M389.6,37.3c1.5,4.9,5.9,8.2,9.2,8.5c1.1,0.1,2.6-0.2,3.4-1.8c0.7-1.4,0.5-3.5-0.5-5.8
						c-1.6-3.5-4.8-6.3-8-7.1c-1.5-0.3-2.7,0-3.5,0.8C389.1,33.1,388.9,35.1,389.6,37.3z"/>
					<path class="st2" d="M391.6,51.9c0,0-0.1,0-0.2,0c-1.7-0.2-3.5,0.3-4.8,1.6c-1.7,1.6-2.5,4.3-2.1,7.2c0.5,4.9,3.7,8,6.5,8.9
						c2.4,0.8,4.6,0.1,6.3-1.7c1.9-2.1,2.4-5.8,1.3-9.1c-0.5-1.6-1.4-3.2-2.6-4.4c-0.6-0.6-1.2-1.1-2-1.5
						C393.3,52.4,392.5,52,391.6,51.9z"/>
					<path class="st2" d="M374.9,55.1c-0.5-1.2-1.2-2.4-2.2-3.3c-0.9-0.9-2.1-1.6-3.3-2.1c-1.6-0.6-3.3-0.7-5-0.2
						c-1.4,0.4-2.7,1.1-3.7,2.2c0,0,0,0,0,0c-1.9,2-2.4,4.7-2.2,6.6c0.3,3.8,2.8,7,6.4,8.2c3.2,1.1,6.4,0.3,8.6-2.1
						C375.6,62,376.2,58.4,374.9,55.1z"/>
					<path class="st2" d="M358.3,27.3c-1.8,0-3.5,0.4-5,1.4c-0.5,0.3-0.9,0.7-1.3,1.1c-1.2,1.3-1.8,3.1-1.6,4.7
						c0.4,3.6,3.4,5.6,6.1,6.3c3.6,1,7.1,0,9-2.6c1.4-1.8,1.6-4.1,0.5-6.3c-1-2.1-3-3.6-5.1-4.3C360.1,27.5,359.2,27.4,358.3,27.3z"
						/>
					<path class="st2" d="M352.8,17.5c0.5,3,6.1,3.9,7.9,1.3c0.6-0.9,0.4-2.1-0.3-2.9c-1-1.2-2.8-1.8-4.3-1.6
						C354.5,14.4,352.4,15.5,352.8,17.5"/>
					<path class="st2" d="M338.6,51.9c0.5,4.7,6.5,6.2,9.5,2.3c1.9-2.4,1.3-6.2-1.6-7.6c-3.1-1.5-7,0.3-7.8,3.6
						C338.6,50.8,338.6,51.4,338.6,51.9"/>
					<path class="st2" d="M374.2,79.8c0,4.8,5,7.1,8.1,3.8c0.5-0.5,0.9-1.2,1.1-1.9s0.4-1.4,0.4-2.1s-0.1-1.4-0.4-2.1
						c-0.3-0.7-0.6-1.3-1.1-1.8c-0.5-0.5-1.2-0.9-1.9-1.2c-1-0.3-2.1-0.3-3.1,0.2c-0.7,0.3-1.4,0.8-1.9,1.5c-0.5,0.6-0.8,1.3-1,2.1
						C374.2,78.7,374.2,79.2,374.2,79.8"/>
					<path class="st2" d="M406.2,57.4c0.6,4.6,4.4,7.7,6.3,5.3c2-2.5,0-8.7-3.2-9.8C406.9,52.3,405.8,54.7,406.2,57.4"/>
					<path class="st2" d="M386.3,20.1c1.9,2.9,6.4,5.1,7,3.3c0.6-1.6-2.9-5.2-5.9-5.9C384.9,17.1,385.6,19,386.3,20.1"/>
					<path class="st2" d="M382.2,24c-0.3-0.6-0.7-1.2-1.1-1.7c-0.5-0.6-1-1.1-1.6-1.6c-0.6-0.5-1.3-1-2.1-1.4
						c-0.8-0.4-1.6-0.7-2.5-1c-0.6-0.2-1.2-0.3-1.8-0.3c-1.6,0-2.9,0.5-3.6,1.4c-0.8,1-0.9,2.3-0.4,3.8c1.2,3.4,5.3,5.8,8.7,6.2
						c1.3,0.1,3.5,0.1,4.6-1.8C382.9,26.8,382.9,25.4,382.2,24z"/>
					<path class="st2" d="M361.6,10.8c1.1,2.3,6,3.2,6.8,1.3c0.5-1.3-1.6-3.2-4.5-3.5C361.7,8.5,361,9.6,361.6,10.8"/>
					<path class="st2" d="M373.5,11.9c1.9,2.2,6.3,3.6,6.5,2c0.2-1.2-2.7-3.5-5.6-4.1c-1.9-0.2-1.9,0.8-1.1,1.9
						C373.4,11.7,373.5,11.8,373.5,11.9"/>
					<path class="st2" d="M377,8.6c2.9,1.8,5.7,2.7,5.5,2c-0.2-0.8-4-2.7-6.6-3.4c-0.3-0.1-0.8-0.2-0.6,0.2
						C375.5,7.6,376.1,8.1,377,8.6"/>
					<path class="st2" d="M351.7,6.4c0.3,1.6,4.8,2,5.6,0.5c0.4-0.8-0.5-1.9-3-2C352.5,4.9,351.6,5.6,351.7,6.4"/>
					<path class="st2" d="M331,37.1c0.1,3.8,5.3,5.1,8.5,2c3-2.9,1.5-7.2-2.6-7.2c-0.1,0-0.3,0-0.4,0C333.2,32.1,331,34.8,331,37.1"
						/>
					<path class="st2" d="M338.3,23.1c-0.1,3.2,5.2,4.2,8,1.4c2.3-2.3,0.8-5.4-2.6-5.5c-0.1,0-0.2,0-0.3,0
						C340.4,19.2,338.4,21.2,338.3,23.1"/>
					<path class="st2" d="M336.4,12.9c-0.6,2.1,2.9,2.8,5.7,1.2c2.3-1.3,2.5-3.4,0.5-4c-0.6-0.2-1.1-0.2-1.5-0.1
						C338.8,10.2,336.8,11.7,336.4,12.9"/>
					<path class="st2" d="M315,48.6c0.1,4.1,5.3,5.2,8.4,1.7c3.1-3.4,1.5-8.1-2.6-7.9c-0.1,0-0.3,0-0.4,0
						C317.2,43,315,46.1,315,48.6"/>
					<path class="st2" d="M356.5,82.1c0.4,4.7,5.8,6.7,8.7,3.1c0.8-0.9,1.2-2.1,1.3-3.3c0.1-1.2-0.2-2.3-0.8-3.3
						c-0.6-1-1.6-1.8-2.7-2.2c-1.4-0.5-2.9-0.2-4.2,0.6c-1,0.6-1.6,1.6-2,2.7C356.6,80.4,356.5,81.3,356.5,82.1"/>
					<path class="st2" d="M341.5,70.8c0.2,1.8,1.4,3.5,3.1,4.3c2.4,1,5.2,0.1,6.5-2.1c1-1.7,1.1-3.9,0.2-5.7
						c-0.3-0.6-0.7-1.1-1.2-1.5c-2-1.7-5.1-1.5-7,0.3C341.9,67.3,341.3,69.1,341.5,70.8"/>
					<path class="st2" d="M322.6,72.8c0.3,1.9,1.6,3.5,3.5,4.1c2.5,0.8,5.2-0.6,6.3-2.9c0.9-1.9,0.7-4.2-0.5-5.9
						c-0.3-0.4-0.6-0.7-1-1c-2.2-1.6-5.3-1-7,1C322.8,69.4,322.3,71.1,322.6,72.8"/>
					<path class="st2" d="M360.8,100.5c0,0.7,0.2,1.4,0.5,2.1c0.5,1.3,1.5,2.2,2.9,2.5c1.6,0.4,3.3-0.5,4.3-1.8
						c0.9-1.1,1.3-2.5,1.2-3.9c0-1.3-0.5-2.6-1.5-3.4c-1.4-1.3-3.6-1.3-5.1-0.3c-1.3,0.9-2.1,2.4-2.3,3.9
						C360.8,100,360.8,100.3,360.8,100.5"/>
					<path class="st2" d="M403.7,76.2c-0.2,4.6,3.2,7.7,5.8,5.2c2.8-2.7,1.9-9-1.5-10.1C405.5,70.7,403.8,73.3,403.7,76.2"/>
					<path class="st2" d="M390.1,84.9c-0.4,4.5,3.4,7.2,6.4,4.6s2.8-8.8-1.3-9.7C392.4,79.4,390.4,82.1,390.1,84.9"/>
					<path class="st2" d="M381.9,102.3c-0.7,4,2.3,6.5,5.3,4.4c3.8-2.6,3.8-8.6,0.1-9.3C384.6,97.1,382.4,99.6,381.9,102.3"/>
					<path class="st2" d="M416.2,80.9c-0.4,4.2,1.6,7.5,3.6,6c2.6-1.9,2.5-9.1-0.1-10.5C417.8,75.5,416.4,78,416.2,80.9"/>
					<path class="st2" d="M399.9,28.2c2,3.5,6.2,6.1,6.5,4.1c0.3-1.8-3.2-6.1-5.9-7.1c-2.5-0.7-0.8,2.5-0.8,2.6
						C399.8,28,399.9,28.1,399.9,28.2"/>
					<path class="st2" d="M409.3,43.6c1.3,3.9,4.8,7,5.9,5.3c1.1-1.8-1.4-7.5-4.5-8.9C408.5,39.2,408.7,41.7,409.3,43.6"/>
					<path class="st2" d="M420.2,57.4c0.8,4,3,7.4,4,6.2c1.1-1.5-0.6-8.4-2.8-10.1C419.8,52.6,419.8,55.4,420.2,57.4"/>
					<path class="st2" d="M394.6,17.8c2.8,2.7,5.7,4.4,5.8,3.7c0.1-0.9-4.5-4.8-7-5.9c-0.4-0.1-0.4-0.2-0.6-0.1
						C392.7,15.9,393.7,17,394.6,17.8"/>
				</g>
			</g>
		</g>
	</g>
</g>
</svg>
