<?xml version="1.0" encoding="utf-8"?>
<!-- Generator: Adobe Illustrator 23.0.6, SVG Export Plug-In . SVG Version: 6.00 Build 0)  -->
<svg version="1.1" id="Ebene_1" xmlns="http://www.w3.org/2000/svg" xmlns:xlink="http://www.w3.org/1999/xlink" x="0px" y="0px"
	 viewBox="0 0 130 107.7" style="enable-background:new 0 0 130 107.7;" xml:space="preserve">
<style type="text/css">
	.st2{fill:#C1002A;}
</style>
	<g>
		<path class="st2" d="M89.6,37.3c1.5,4.9,5.9,8.2,9.2,8.5c1.1,0.1,2.6-0.2,3.4-1.8c0.7-1.4,0.5-3.5-0.5-5.8
			c-1.6-3.5-4.8-6.3-8-7.1c-1.5-0.3-2.7,0-3.5,0.8C89.1,33.1,88.9,35.1,89.6,37.3z"/>
		<path class="st2" d="M91.6,51.9c0,0-0.1,0-0.2,0c-1.7-0.2-3.5,0.3-4.8,1.6c-1.7,1.6-2.5,4.3-2.1,7.2c0.5,4.9,3.7,8,6.5,8.9
			c2.4,0.8,4.6,0.1,6.3-1.7c1.9-2.1,2.4-5.8,1.3-9.1c-0.5-1.6-1.4-3.2-2.6-4.4c-0.6-0.6-1.2-1.1-2-1.5
			C93.3,52.4,92.5,52,91.6,51.9z"/>
		<path class="st2" d="M74.9,55.1c-0.5-1.2-1.2-2.4-2.2-3.3c-0.9-0.9-2.1-1.6-3.3-2.1c-1.6-0.6-3.3-0.7-5-0.2
			c-1.4,0.4-2.7,1.1-3.7,2.2c0,0,0,0,0,0c-1.9,2-2.4,4.7-2.2,6.6c0.3,3.8,2.8,7,6.4,8.2c3.2,1.1,6.4,0.3,8.6-2.1
			C75.6,62,76.2,58.4,74.9,55.1z"/>
		<path class="st2" d="M58.3,27.3c-1.8,0-3.5,0.4-5,1.4c-0.5,0.3-0.9,0.7-1.3,1.1c-1.2,1.3-1.8,3.1-1.6,4.7
			c0.4,3.6,3.4,5.6,6.1,6.3c3.6,1,7.1,0,9-2.6c1.4-1.8,1.6-4.1,0.5-6.3c-1-2.1-3-3.6-5.1-4.3C60.1,27.5,59.2,27.4,58.3,27.3z"
			/>
		<path class="st2" d="M52.8,17.5c0.5,3,6.1,3.9,7.9,1.3c0.6-0.9,0.4-2.1-0.3-2.9c-1-1.2-2.8-1.8-4.3-1.6
			C54.5,14.4,52.4,15.5,52.8,17.5"/>
		<path class="st2" d="M38.6,51.9c0.5,4.7,6.5,6.2,9.5,2.3c1.9-2.4,1.3-6.2-1.6-7.6c-3.1-1.5-7,0.3-7.8,3.6
			C38.6,50.8,38.6,51.4,38.6,51.9"/>
		<path class="st2" d="M74.2,79.8c0,4.8,5,7.1,8.1,3.8c0.5-0.5,0.9-1.2,1.1-1.9s0.4-1.4,0.4-2.1s-0.1-1.4-0.4-2.1
			c-0.3-0.7-0.6-1.3-1.1-1.8c-0.5-0.5-1.2-0.9-1.9-1.2c-1-0.3-2.1-0.3-3.1,0.2c-0.7,0.3-1.4,0.8-1.9,1.5c-0.5,0.6-0.8,1.3-1,2.1
			C74.2,78.7,74.2,79.2,74.2,79.8"/>
		<path class="st2" d="M106.2,57.4c0.6,4.6,4.4,7.7,6.3,5.3c2-2.5,0-8.7-3.2-9.8C106.9,52.3,105.8,54.7,106.2,57.4"/>
		<path class="st2" d="M86.3,20.1c1.9,2.9,6.4,5.1,7,3.3c0.6-1.6-2.9-5.2-5.9-5.9C84.9,17.1,85.6,19,86.3,20.1"/>
		<path class="st2" d="M82.2,24c-0.3-0.6-0.7-1.2-1.1-1.7c-0.5-0.6-1-1.1-1.6-1.6c-0.6-0.5-1.3-1-2.1-1.4
			c-0.8-0.4-1.6-0.7-2.5-1c-0.6-0.2-1.2-0.3-1.8-0.3c-1.6,0-2.9,0.5-3.6,1.4c-0.8,1-0.9,2.3-0.4,3.8c1.2,3.4,5.3,5.8,8.7,6.2
			c1.3,0.1,3.5,0.1,4.6-1.8C82.9,26.8,82.9,25.4,82.2,24z"/>
		<path class="st2" d="M61.6,10.8c1.1,2.3,6,3.2,6.8,1.3c0.5-1.3-1.6-3.2-4.5-3.5C61.7,8.5,61,9.6,61.6,10.8"/>
		<path class="st2" d="M73.5,11.9c1.9,2.2,6.3,3.6,6.5,2c0.2-1.2-2.7-3.5-5.6-4.1c-1.9-0.2-1.9,0.8-1.1,1.9
			C73.4,11.7,73.5,11.8,73.5,11.9"/>
		<path class="st2" d="M77,8.6c2.9,1.8,5.7,2.7,5.5,2c-0.2-0.8-4-2.7-6.6-3.4c-0.3-0.1-0.8-0.2-0.6,0.2
			C75.5,7.6,76.1,8.1,77,8.6"/>
		<path class="st2" d="M51.7,6.4c0.3,1.6,4.8,2,5.6,0.5c0.4-0.8-0.5-1.9-3-2C52.5,4.9,51.6,5.6,51.7,6.4"/>
		<path class="st2" d="M31,37.1c0.1,3.8,5.3,5.1,8.5,2c3-2.9,1.5-7.2-2.6-7.2c-0.1,0-0.3,0-0.4,0C33.2,32.1,31,34.8,31,37.1"
			/>
		<path class="st2" d="M38.3,23.1c-0.1,3.2,5.2,4.2,8,1.4c2.3-2.3,0.8-5.4-2.6-5.5c-0.1,0-0.2,0-0.3,0
			C40.4,19.2,38.4,21.2,38.3,23.1"/>
		<path class="st2" d="M36.4,12.9c-0.6,2.1,2.9,2.8,5.7,1.2c2.3-1.3,2.5-3.4,0.5-4c-0.6-0.2-1.1-0.2-1.5-0.1
			C38.8,10.2,36.8,11.7,36.4,12.9"/>
		<path class="st2" d="M15,48.6c0.1,4.1,5.3,5.2,8.4,1.7c3.1-3.4,1.5-8.1-2.6-7.9c-0.1,0-0.3,0-0.4,0
			C17.2,43,15,46.1,15,48.6"/>
		<path class="st2" d="M56.5,82.1c0.4,4.7,5.8,6.7,8.7,3.1c0.8-0.9,1.2-2.1,1.3-3.3c0.1-1.2-0.2-2.3-0.8-3.3
			c-0.6-1-1.6-1.8-2.7-2.2c-1.4-0.5-2.9-0.2-4.2,0.6c-1,0.6-1.6,1.6-2,2.7C56.6,80.4,56.5,81.3,56.5,82.1"/>
		<path class="st2" d="M41.5,70.8c0.2,1.8,1.4,3.5,3.1,4.3c2.4,1,5.2,0.1,6.5-2.1c1-1.7,1.1-3.9,0.2-5.7
			c-0.3-0.6-0.7-1.1-1.2-1.5c-2-1.7-5.1-1.5-7,0.3C41.9,67.3,41.3,69.1,41.5,70.8"/>
		<path class="st2" d="M22.6,72.8c0.3,1.9,1.6,3.5,3.5,4.1c2.5,0.8,5.2-0.6,6.3-2.9c0.9-1.9,0.7-4.2-0.5-5.9
			c-0.3-0.4-0.6-0.7-1-1c-2.2-1.6-5.3-1-7,1C22.8,69.4,22.3,71.1,22.6,72.8"/>
		<path class="st2" d="M60.8,100.5c0,0.7,0.2,1.4,0.5,2.1c0.5,1.3,1.5,2.2,2.9,2.5c1.6,0.4,3.3-0.5,4.3-1.8
			c0.9-1.1,1.3-2.5,1.2-3.9c0-1.3-0.5-2.6-1.5-3.4c-1.4-1.3-3.6-1.3-5.1-0.3c-1.3,0.9-2.1,2.4-2.3,3.9
			C60.8,100,60.8,100.3,60.8,100.5"/>
		<path class="st2" d="M103.7,76.2c-0.2,4.6,3.2,7.7,5.8,5.2c2.8-2.7,1.9-9-1.5-10.1C105.5,70.7,103.8,73.3,103.7,76.2"/>
		<path class="st2" d="M90.1,84.9c-0.4,4.5,3.4,7.2,6.4,4.6s2.8-8.8-1.3-9.7C92.4,79.4,90.4,82.1,90.1,84.9"/>
		<path class="st2" d="M81.9,102.3c-0.7,4,2.3,6.5,5.3,4.4c3.8-2.6,3.8-8.6,0.1-9.3C84.6,97.1,82.4,99.6,81.9,102.3"/>
		<path class="st2" d="M116.2,80.9c-0.4,4.2,1.6,7.5,3.6,6c2.6-1.9,2.5-9.1-0.1-10.5C117.8,75.5,116.4,78,116.2,80.9"/>
		<path class="st2" d="M99.9,28.2c2,3.5,6.2,6.1,6.5,4.1c0.3-1.8-3.2-6.1-5.9-7.1c-2.5-0.7-0.8,2.5-0.8,2.6
			C99.8,28,99.9,28.1,99.9,28.2"/>
		<path class="st2" d="M109.3,43.6c1.3,3.9,4.8,7,5.9,5.3c1.1-1.8-1.4-7.5-4.5-8.9C108.5,39.2,108.7,41.7,109.3,43.6"/>
		<path class="st2" d="M120.2,57.4c0.8,4,3,7.4,4,6.2c1.1-1.5-0.6-8.4-2.8-10.1C119.8,52.6,119.8,55.4,120.2,57.4"/>
		<path class="st2" d="M94.6,17.8c2.8,2.7,5.7,4.4,5.8,3.7c0.1-0.9-4.5-4.8-7-5.9c-0.4-0.1-0.4-0.2-0.6-0.1
			C92.7,15.9,93.7,17,94.6,17.8"/>
	</g>
</svg>
